<?xml version="1.0" standalone="no"?><!DOCTYPE svg PUBLIC "-//W3C//DTD SVG 1.1//EN" "http://www.w3.org/Graphics/SVG/1.1/DTD/svg11.dtd"><svg t="1691976567263" class="icon" viewBox="0 0 1024 1024" version="1.1" xmlns="http://www.w3.org/2000/svg" p-id="11256" xmlns:xlink="http://www.w3.org/1999/xlink" width="200" height="200"><path d="M832 864 192 864c-51.2 0-96-44.8-96-96L96 256c0-51.2 44.8-96 96-96l640 0c51.2 0 96 44.8 96 96l0 512C928 819.2 883.2 864 832 864zM192 224C172.8 224 160 236.8 160 256l0 512c0 19.2 12.8 32 32 32l640 0c19.2 0 32-12.8 32-32L864 256c0-19.2-12.8-32-32-32L192 224zM672 409.6m-64 0a1 1 0 1 0 128 0 1 1 0 1 0-128 0ZM768 678.4c-57.6-44.8-83.2-32-121.6-12.8-25.6 12.8-64 25.6-115.2 19.2-64-12.8-89.6-57.6-108.8-96-12.8-25.6-25.6-51.2-51.2-64-64-32-121.6 6.4-121.6 6.4C230.4 544 204.8 537.6 198.4 524.8c-6.4-12.8 0-38.4 12.8-44.8 6.4 0 89.6-57.6 185.6-12.8 44.8 25.6 64 57.6 83.2 89.6 19.2 32 32 57.6 70.4 64 25.6 6.4 44.8 0 70.4-12.8 44.8-19.2 96-44.8 185.6 25.6 19.2 12.8 19.2 38.4 12.8 44.8C806.4 684.8 793.6 697.6 768 678.4z" fill="#ffffff" p-id="11257"></path></svg>